<?xml version="1.0" encoding="utf-8"?>
<!-- Generator: Adobe Illustrator 23.0.1, SVG Export Plug-In . SVG Version: 6.00 Build 0)  -->
<svg version="1.1" id="Livello_1" xmlns="http://www.w3.org/2000/svg" xmlns:xlink="http://www.w3.org/1999/xlink" x="0px" y="0px"
	 viewBox="0 0 1000 300" style="enable-background:new 0 0 1000 300;" xml:space="preserve">
<style type="text/css">
	.st0{fill:#FFFFFF;}
</style>
<g>
	<g>
		<path class="st0" d="M158.43,152.46c0.17-1.9,1.08-3.19,2.72-3.89c1.64-0.69,3.11-0.47,4.4,0.65c1.3,1.13,1.77,2.72,1.43,4.79
			c-2.59,13.82-10.2,27.99-22.8,42.5c-12.61,14.51-26.09,23.84-40.42,27.98c-22.46,6.57-38.09-0.09-46.9-19.95
			c-7.77-17.62-8.72-40.68-2.85-69.19c5.7-28.33,15.98-51.05,30.84-68.15c15.2-17.45,31.61-23.75,49.23-18.92
			c8.98,2.42,14.94,7.13,17.88,14.12c2.93,7,2.42,13.95-1.56,20.86c-3.98,6.91-10.28,11.66-18.92,14.25
			c-1.9,0.52-3.41,0.22-4.54-0.91c-1.13-1.12-1.47-2.5-1.04-4.15c0.43-1.64,1.68-2.81,3.76-3.5c7.6-2.76,12.61-7.68,15.03-14.77
			c2.42-6.56,1.46-10.97-2.85-13.22c-2.07-1.04-4.75-1.21-8.03-0.52c-10.2,2.07-20.3,13.65-30.32,34.72
			c-10.88,22.8-17.1,45.95-18.66,69.45c-1.73,25.23,3.45,39.9,15.55,44.05l4.4,1.04c10.36,0.86,21.29-4.97,32.78-17.49
			C149.06,179.71,156.01,166.45,158.43,152.46z"/>
		<path class="st0" d="M277.88,163.86h4.92c-11.23,21.94-20.56,37.14-27.98,45.6c-8.64,9.85-17.02,14.86-25.14,15.03
			c-5.87,0.17-10.32-2.07-13.34-6.73c-3.03-4.66-4.79-10.58-5.31-17.75c-0.52-7.17-0.78-14.38-0.78-21.64s-0.43-13.99-1.3-20.21
			c-0.87-6.22-2.59-10.19-5.18-11.92c-5.01-3.28-12.79,2.51-23.32,17.36c0,23.15-0.43,38.35-1.3,45.61c-0.17,1.9-1.26,3.5-3.24,4.79
			c-1.99,1.3-4.32,2.07-7,2.33c-2.68,0.26-5.31,0.17-7.9-0.26c-2.59-0.43-4.75-1.34-6.48-2.72c-1.72-1.38-2.5-3.02-2.33-4.92
			c1.04-12.09,1.21-26.6,0.52-43.53c-0.69-16.93-0.73-35.07-0.13-54.41c0.61-19.35,2.46-32.22,5.57-38.61
			c2.76-5.53,7.17-9.15,13.22-10.88c6.04-1.72,11.96-1.6,17.75,0.39c5.79,1.99,10.06,4.97,12.83,8.94c1.55,2.25,2.46,5.05,2.72,8.42
			c0.26,3.37-0.09,7.3-1.04,11.79c-0.95,4.5-1.99,8.68-3.11,12.57c-1.12,3.89-2.85,8.64-5.18,14.25c-2.33,5.62-4.11,9.85-5.31,12.7
			c-1.21,2.85-3.07,6.87-5.57,12.05c-2.51,5.18-3.85,8.03-4.02,8.55v3.11c7.94-10.54,16.24-16.24,24.88-17.1
			c7.94-1.04,14.16,0.17,18.66,3.63c4.49,3.46,7.39,8.34,8.68,14.64c1.3,6.31,1.98,12.7,2.07,19.18c0.09,6.48,0.13,12.95,0.13,19.43
			c0,6.48,0.52,10.85,1.56,13.09c2.76,6.22,8.25,4.32,16.45-5.7C261.08,190.9,269.42,178.55,277.88,163.86z M183.31,77.06
			c-3.8,10.88-5.18,32.13-4.15,63.74c5.18-9.33,10.32-21.51,15.42-36.54c5.09-15.03,6-25.22,2.72-30.58
			c-1.21-1.9-2.64-3.24-4.28-4.02c-1.64-0.78-3.37-0.6-5.18,0.52C186.03,71.31,184.51,73.6,183.31,77.06z"/>
		<path class="st0" d="M337.74,137.43c-3.98-3.11-9.33-3.54-16.07-1.3c-4.66,1.39-8.9,4.54-12.7,9.46
			c-3.8,4.92-6.48,10.24-8.03,15.94c-1.56,5.7-1.99,11.23-1.3,16.58c0.69,5.36,2.76,9.07,6.22,11.14
			c6.05,3.45,11.23,2.16,15.55-3.89c4.32-6.04,6.74-12.44,7.26-19.17c0.52-5.87,4.66-11.05,12.44-15.55
			c7.42-4.15,12.87-4.84,16.32-2.07c2.42,1.9,2.59,5.62,0.52,11.14c-8.99,26.26-10.8,42.93-5.44,50.01c1.21,1.38,2.55,2.2,4.02,2.46
			c1.47,0.26,3.07-0.05,4.79-0.91c1.72-0.87,3.5-2.07,5.31-3.63c1.81-1.56,3.71-3.5,5.7-5.83c1.98-2.33,3.89-4.66,5.7-7
			c1.81-2.33,3.63-4.96,5.44-7.9c1.81-2.93,3.41-5.48,4.79-7.64c1.38-2.16,2.81-4.45,4.28-6.87c1.47-2.42,2.5-4.18,3.11-5.31
			c0.6-1.12,1.17-2.2,1.68-3.24h4.92c-9.68,17.97-15.03,27.72-16.07,29.28c-15.38,24.87-30.41,34.63-45.09,29.28
			c-5.7-2.07-9.72-6.87-12.05-14.39c-2.33-7.51-2.72-15.24-1.17-23.19c-5.36,9.85-14.77,14.34-28.24,13.47
			c-12.27-0.69-20.47-6.48-24.62-17.36c-3.97-10.53-2.94-21.25,3.11-32.13c7.08-12.96,18.57-19.95,34.46-20.99
			c3.11-0.17,6.22-0.09,9.33,0.26c9.15,1.04,15.29,2.77,18.4,5.18c0.17,0.17,0.13,0.69-0.13,1.55c-0.26,0.87-0.65,1.6-1.17,2.2
			C338.52,137.65,338.09,137.78,337.74,137.43z"/>
		<path class="st0" d="M401.75,164.38h-4.92c4.32-9.15,7.6-18.14,9.85-26.95c-8.64-3.28-13.04-7.94-13.22-13.99
			c-0.17-6.22,2.42-10.19,7.77-11.92c5.35-1.72,9.59-0.6,12.7,3.37c3.28,3.98,3.45,9.5,0.52,16.58c1.56,0.35,4.45,0.61,8.68,0.78
			c4.23,0.17,8.42,0.3,12.57,0.39c4.15,0.09,8.29,0.39,12.44,0.91c4.15,0.52,7.43,1.51,9.85,2.98c2.42,1.47,3.54,3.41,3.37,5.83
			c-0.52,4.66-5.36,18.05-14.51,40.16c-8.12,20.21-10.71,30.83-7.77,31.87c0.52,0.17,1.12,0.17,1.81,0
			c7.26-2.07,14.38-7.56,21.38-16.46c7-8.89,14.29-20.25,21.9-34.07h4.92c-0.69,1.21-2.81,5.18-6.35,11.92
			c-3.54,6.74-6.09,11.4-7.64,13.99c-1.55,2.59-4.24,6.7-8.03,12.31c-3.8,5.62-7.13,9.76-9.98,12.44
			c-2.85,2.68-6.48,5.35-10.88,8.03c-4.4,2.68-8.94,4.36-13.6,5.06c-17.79,3.11-22.37-11.92-13.73-45.09
			c0.86-2.94,4.75-15.03,11.66-36.28c1.04-3.28,1.47-5.18,1.3-5.7l-4.66-0.26c-2.94-0.34-6.05-0.6-9.33-0.78
			c-3.28-0.17-5.18-0.34-5.7-0.52C409,149.01,405.54,157.47,401.75,164.38z"/>
		<path class="st0" d="M551.26,163.86h4.92c-3.45,6.74-5.83,11.36-7.12,13.86c-1.3,2.51-4.11,7.35-8.42,14.51
			c-4.32,7.17-8.08,12.53-11.27,16.07c-3.2,3.54-7.22,6.95-12.05,10.23c-4.84,3.28-9.5,5.01-13.99,5.19
			c-6.05,0.17-10.97-2.77-14.77-8.81c-3.8-6.05-6.22-13.43-7.26-22.16c-1.04-8.72-1.81-17.79-2.33-27.21
			c-0.52-9.41-0.43-17.4,0.26-23.97c0-2.59,2.29-4.54,6.87-5.83c4.57-1.3,9.15-1.51,13.73-0.65c4.57,0.87,6.87,2.68,6.87,5.44
			c0,2.07,0.04,6.44,0.13,13.09c0.09,6.65,0.13,12.09,0.13,16.32c0,4.24,0.13,9.11,0.39,14.64s0.6,10.06,1.04,13.6
			c0.43,3.54,0.99,6.09,1.68,7.65c2.76,6.22,8.25,4.4,16.45-5.44C534.72,190.55,542.97,178.37,551.26,163.86z"/>
		<path class="st0" d="M628.22,163.86h4.92c-12.96,28.16-26.86,48.37-41.72,60.63c-15.03,12.61-26.35,12.27-33.94-1.03
			c-2.42-4.32-4.32-9.94-5.7-16.84c-3.45-16.93-5.01-52.25-4.66-105.98c-2.42,0.17-4.58,0.26-6.48,0.26c-1.9,0-3.97,0-6.22,0
			c-1.21,0-2.03-0.6-2.46-1.81c-0.43-1.21-0.34-2.46,0.26-3.76c0.61-1.3,1.42-1.94,2.46-1.94c2.25,0,4.28-0.04,6.09-0.13
			c1.81-0.09,3.93-0.13,6.35-0.13c0-7.08,0.52-11.66,1.55-13.73c2.07-3.97,5.83-7.04,11.27-9.2c5.44-2.16,10.53-2.37,15.29-0.65
			c4.75,1.73,7.13,5.53,7.13,11.4l-0.78,11.66c6.05-0.17,10.8-0.43,14.25-0.78c1.21-0.17,2.11,0.3,2.72,1.42
			c0.6,1.13,0.73,2.33,0.39,3.63c-0.35,1.3-1.04,2.03-2.07,2.2c-4.14,0.52-9.24,0.87-15.29,1.04
			c-1.55,68.76,0.09,104.95,4.92,108.57c3.8,2.94,9.72-0.21,17.75-9.45C612.28,189.99,620.27,178.2,628.22,163.86z"/>
		<path class="st0" d="M747.94,159.72c0.17-1.04,0.95-1.6,2.33-1.68c1.38-0.09,2.63,0.22,3.76,0.91c1.12,0.69,1.6,1.47,1.43,2.33
			c-2.77,12.79-9.5,23.37-20.21,31.74c-10.71,8.38-22.37,13.95-34.98,16.71c-8.64,1.72-16.89,2.03-24.75,0.91
			c-7.86-1.12-14.69-3.76-20.47-7.91c-5.79-4.14-10.8-8.98-15.03-14.51c-4.24-5.53-7.08-11.83-8.55-18.91
			c-1.47-7.08-1.81-14.03-1.04-20.86c0.78-6.82,3.32-13.64,7.64-20.47c4.32-6.82,10.11-12.83,17.36-18.01
			c2.59-1.72,4.23-2.76,4.92-3.11c-2.59-1.56-4.84-3.8-6.74-6.74c-6.05-10.36-5.66-21.85,1.17-34.46
			c6.82-12.61,16.54-20.3,29.15-23.06c20.21-4.49,34.63-1.12,43.27,10.1c5.7,7.77,7.17,16.16,4.41,25.14
			c-2.25,6.39-6.13,10.54-11.66,12.44c-2.59,0.87-4.24,0-4.92-2.59c-0.87-2.76,0.26-4.92,3.37-6.48c4.15-2.07,5.96-6.22,5.44-12.44
			c-0.52-6.22-2.85-10.84-7-13.86c-4.15-3.02-9.33-2.81-15.55,0.65c-5.53,3.98-9.81,10.11-12.83,18.4
			c-3.03,8.29-2.98,15.46,0.13,21.51c2.42,4.15,7.52,6.22,15.29,6.22c2.42,0.17,3.63,1.68,3.63,4.54c0,2.85-1.21,4.36-3.63,4.53
			c-5.36,0.52-10.71,2.68-16.06,6.48c-6.91,4.84-12.27,11.83-16.07,20.99c-3.8,9.16-5.49,18.14-5.05,26.95
			c0.43,8.81,3.67,16.5,9.72,23.06c6.05,6.57,14.6,9.85,25.65,9.85c10.37,0,20.08-3.67,29.15-11.01
			C740.29,179.71,745.86,170.6,747.94,159.72z"/>
		<path class="st0" d="M808.57,137.43c-3.98-3.11-9.33-3.54-16.06-1.3c-4.66,1.39-8.9,4.54-12.7,9.46
			c-3.8,4.92-6.48,10.24-8.03,15.94c-1.55,5.7-1.99,11.23-1.3,16.58c0.69,5.36,2.76,9.07,6.22,11.14
			c6.04,3.45,11.23,2.16,15.54-3.89c4.32-6.04,6.74-12.44,7.26-19.17c0.52-5.87,4.66-11.05,12.44-15.55
			c7.43-4.15,12.87-4.84,16.32-2.07c2.42,1.9,2.59,5.62,0.52,11.14c-8.99,26.26-10.8,42.93-5.44,50.01c1.21,1.38,2.55,2.2,4.02,2.46
			c1.47,0.26,3.07-0.05,4.8-0.91c1.72-0.87,3.5-2.07,5.31-3.63c1.81-1.56,3.71-3.5,5.7-5.83c1.99-2.33,3.89-4.66,5.7-7
			c1.82-2.33,3.63-4.96,5.44-7.9c1.81-2.93,3.41-5.48,4.79-7.64c1.38-2.16,2.81-4.45,4.28-6.87c1.47-2.42,2.5-4.18,3.11-5.31
			c0.6-1.12,1.16-2.2,1.68-3.24h4.92c-9.68,17.97-15.03,27.72-16.07,29.28c-15.38,24.87-30.4,34.63-45.09,29.28
			c-5.7-2.07-9.72-6.87-12.05-14.39c-2.33-7.51-2.72-15.24-1.16-23.19c-5.36,9.85-14.77,14.34-28.25,13.47
			c-12.27-0.69-20.47-6.48-24.62-17.36c-3.97-10.53-2.93-21.25,3.11-32.13c7.08-12.96,18.57-19.95,34.46-20.99
			c3.11-0.17,6.22-0.09,9.33,0.26c9.15,1.04,15.29,2.77,18.4,5.18c0.17,0.17,0.13,0.69-0.13,1.55c-0.26,0.87-0.65,1.6-1.17,2.2
			C809.34,137.65,808.91,137.78,808.57,137.43z"/>
		<path class="st0" d="M944.86,163.86h4.92c-12.96,28.16-26.86,48.37-41.72,60.63c-15.03,12.61-26.35,12.27-33.94-1.03
			c-2.42-4.32-4.32-9.94-5.7-16.84c-3.45-16.93-5.01-52.25-4.66-105.98c-2.42,0.17-4.58,0.26-6.48,0.26c-1.9,0-3.97,0-6.22,0
			c-1.21,0-2.03-0.6-2.46-1.81c-0.43-1.21-0.34-2.46,0.26-3.76c0.61-1.3,1.42-1.94,2.46-1.94c2.25,0,4.28-0.04,6.09-0.13
			c1.81-0.09,3.93-0.13,6.35-0.13c0-7.08,0.52-11.66,1.55-13.73c2.07-3.97,5.83-7.04,11.27-9.2c5.44-2.16,10.53-2.37,15.29-0.65
			c4.75,1.73,7.13,5.53,7.13,11.4l-0.78,11.66c6.05-0.17,10.8-0.43,14.25-0.78c1.21-0.17,2.11,0.3,2.72,1.42
			c0.6,1.13,0.73,2.33,0.39,3.63c-0.35,1.3-1.04,2.03-2.07,2.2c-4.14,0.52-9.24,0.87-15.29,1.04
			c-1.55,68.76,0.09,104.95,4.92,108.57c3.8,2.94,9.72-0.21,17.75-9.45C928.93,189.99,936.92,178.2,944.86,163.86z"/>
	</g>
</g>
<g id="z0ZqWO.tif_1_">
	<g>
		<path class="st0" d="M481.69,76.47c0.14,0,0.28,0,0.41,0c0.24,0.08,0.48,0.08,0.73,0c0.14,0,0.28,0,0.41,0
			c0.73,0.09,1.47,0.08,2.2,0.17c1.52,0.2,2.87,0.83,4.19,1.57c1.6,0.9,2.91,2.15,4.07,3.55c0.4,0.48,0.46,0.48,0.85,0
			c1.44-1.77,3.15-3.17,5.21-4.16c1.51-0.72,3.08-1.06,4.74-1.09c0.17,0,0.34,0.05,0.5-0.05c0.14,0,0.28,0,0.41,0
			c0.24,0.08,0.48,0.08,0.73,0c0.14,0,0.28,0,0.41,0c0.72,0.09,1.45,0.1,2.18,0.17c0.89,0.09,1.72,0.38,2.52,0.73
			c2.71,1.15,4.88,2.96,6.49,5.44c1.3,2,2.08,4.17,2.03,6.59c0,0.12-0.04,0.24,0.05,0.35c0,0.07,0,0.14,0,0.21
			c-0.09,0.35-0.09,0.69,0,1.04c0,0.1,0,0.21,0,0.31c-0.1,0.49-0.09,0.99-0.13,1.48c-0.13,1.9-0.94,3.58-1.82,5.21
			c-1.9,3.48-4.54,6.37-7.41,9.06c-3.98,3.73-8.38,6.9-13.01,9.78c-0.63,0.39-1.27,0.76-1.9,1.16c-0.42,0.26-0.86,0.43-1.34,0.53
			c-0.45-0.04-0.87-0.15-1.27-0.38c-4.01-2.35-7.83-4.99-11.45-7.89c-1.41-1.13-2.75-2.35-4.07-3.59c-1.97-1.84-3.77-3.83-5.36-6.02
			c-1.47-2.02-2.69-4.18-3.34-6.62c-0.24-0.9-0.24-1.83-0.26-2.75c0-0.16,0-0.32,0-0.47c-0.03-0.21,0.06-0.43-0.05-0.63
			c0-0.17,0-0.35,0-0.52c0.11-0.56,0.09-1.12,0.15-1.68c0.28-2.67,1.52-4.9,3.25-6.87c1.27-1.44,2.77-2.57,4.5-3.42
			c1.55-0.75,3.16-1.12,4.86-1.14C481.35,76.52,481.53,76.57,481.69,76.47z"/>
		<path class="st0" d="M519.83,90.98c-0.16-0.35-0.16-0.69,0-1.04C519.83,90.29,519.83,90.63,519.83,90.98z"/>
		<path class="st0" d="M482.83,76.47c-0.24,0.17-0.48,0.16-0.73,0C482.34,76.47,482.58,76.47,482.83,76.47z"/>
		<path class="st0" d="M506.15,76.47c-0.24,0.16-0.48,0.17-0.73,0C505.67,76.47,505.91,76.47,506.15,76.47z"/>
		<path class="st0" d="M468.42,90.15c0.18,0.19,0.08,0.41,0.08,0.63c-0.02,0.02-0.03,0.05-0.05,0.07c-0.01-0.03-0.03-0.05-0.04-0.08
			C468.42,90.57,468.42,90.36,468.42,90.15z"/>
		<path class="st0" d="M468.42,90.77c0.03,0,0.06,0,0.08,0c0,0.17,0,0.35,0.01,0.52c-0.03,0-0.06,0-0.09-0.01
			C468.42,91.12,468.42,90.95,468.42,90.77z"/>
	</g>
</g>
</svg>
