<?xml version="1.0" encoding="UTF-8" standalone="no"?>
<svg
   xmlns:dc="http://purl.org/dc/elements/1.1/"
   xmlns:cc="http://creativecommons.org/ns#"
   xmlns:rdf="http://www.w3.org/1999/02/22-rdf-syntax-ns#"
   xmlns:svg="http://www.w3.org/2000/svg"
   xmlns="http://www.w3.org/2000/svg"
   viewBox="0 0 543.97333 497.44"
   height="497.44"
   width="543.97333"
   xml:space="preserve"
   id="svg2"
   version="1.1"><metadata
     id="metadata8"><rdf:RDF><cc:Work
         rdf:about=""><dc:format>image/svg+xml</dc:format><dc:type
           rdf:resource="http://purl.org/dc/dcmitype/StillImage" /></cc:Work></rdf:RDF></metadata><defs
     id="defs6" /><g
     transform="matrix(1.3333333,0,0,-1.3333333,0,497.44)"
     id="g10"><g
       transform="scale(0.1)"
       id="g12"><path
         id="path14"
         style="fill:#17191d;fill-opacity:1;fill-rule:nonzero;stroke:none"
         d="m 1318.75,812.148 h -77.1 V 1517.7 h 77.1 V 812.148" /><path
         id="path16"
         style="fill:#17191d;fill-opacity:1;fill-rule:nonzero;stroke:none"
         d="m 1364.29,812.148 c 0,-46.449 -37.64,-84.097 -84.09,-84.097 -46.45,0 -84.11,37.648 -84.11,84.097 0,46.454 37.66,84.114 84.11,84.114 46.45,0 84.09,-37.66 84.09,-84.114" /><path
         id="path18"
         style="fill:#17191d;fill-opacity:1;fill-rule:nonzero;stroke:none"
         d="M 2805.49,812.148 H 2728.4 V 1517.7 h 77.09 V 812.148" /><path
         id="path20"
         style="fill:#17191d;fill-opacity:1;fill-rule:nonzero;stroke:none"
         d="m 2851.05,812.148 c 0,-46.449 -37.66,-84.097 -84.1,-84.097 -46.46,0 -84.1,37.648 -84.1,84.097 0,46.454 37.64,84.114 84.1,84.114 46.44,0 84.1,-37.66 84.1,-84.114" /><path
         id="path22"
         style="fill:#e63022;fill-opacity:1;fill-rule:nonzero;stroke:none"
         d="M 2039.9,1517.7 399.926,1782.87 c 0,0 47.793,-530.34 1639.974,-530.34 1592.18,0 1639.97,530.34 1639.97,530.34 L 2039.9,1517.7" /><path
         id="path24"
         style="fill:#f03e29;fill-opacity:1;fill-rule:nonzero;stroke:none"
         d="m 3679.87,1810.54 c 0,-214.83 -734.24,-388.98 -1639.97,-388.98 -905.72,0 -1639.974,174.15 -1639.974,388.98 0,214.81 734.254,388.96 1639.974,388.96 905.73,0 1639.97,-174.15 1639.97,-388.96" /><path
         id="path26"
         style="fill:#f03e29;fill-opacity:1;fill-rule:nonzero;stroke:none"
         d="m 3679.87,1810.54 c 0,-214.83 -734.24,-388.98 -1639.97,-388.98 -905.72,0 -1639.974,174.15 -1639.974,388.98 0,214.81 734.254,388.96 1639.974,388.96 905.73,0 1639.97,-174.15 1639.97,-388.96" /><path
         id="path28"
         style="fill:#a7e2f2;fill-opacity:1;fill-rule:nonzero;stroke:none"
         d="m 2771.42,2547.68 c -133,269.59 -410.59,455.07 -731.52,455.07 -320.94,0 -598.53,-185.48 -731.53,-455.07 -53.6,-108.63 -83.76,-230.88 -83.76,-360.22 0,-119.29 25.63,-232.61 71.67,-334.72 223.22,-26.99 475.92,-42.2 743.62,-42.2 267.69,0 520.4,15.21 743.6,42.2 46.06,102.11 71.68,215.43 71.68,334.72 0,129.34 -30.16,251.59 -83.76,360.22" /><path
         id="path30"
         style="fill:#a7e2f2;fill-opacity:1;fill-rule:nonzero;stroke:none"
         d="m 1688.03,1819.53 0.02,0.01 h -0.02 v -0.01" /><path
         id="path32"
         style="fill:#e8e7e6;fill-opacity:1;fill-rule:nonzero;stroke:none"
         d="m 2771.22,2548.08 c -1.16,2.35 -2.32,4.69 -3.51,7.03 1.18,-2.34 2.36,-4.68 3.51,-7.03" /><path
         id="path34"
         style="fill:#da3a25;fill-opacity:1;fill-rule:nonzero;stroke:none"
         d="m 2039.9,1810.54 c -0.5,0 -1,0 -1.5,0 0.51,0 0.99,0 1.5,0 267.69,0 520.4,15.21 743.6,42.2 40.98,90.86 65.78,190.58 70.75,295.49 v 0 c -4.97,-104.91 -29.77,-204.63 -70.75,-295.49 -223.2,-26.99 -475.91,-42.2 -743.6,-42.2 m -2.01,0 c -0.32,0 -0.65,0 -0.96,0 0.32,0 0.63,0 0.96,0 m -1.73,0 c -0.23,0 -0.45,0 -0.68,0 0.23,0 0.45,0 0.68,0 m -1.58,0 c -0.18,0 -0.34,0 -0.51,0 0.16,0 0.35,0 0.51,0 m -1.64,0 c -0.07,0 -0.15,0 -0.22,0 0.07,0 0.16,0 0.22,0 m -1.52,0 c -0.01,0 -0.01,0 -0.03,0 0.02,0 0.02,0 0.03,0" /><path
         id="path36"
         style="fill:#93cad9;fill-opacity:1;fill-rule:nonzero;stroke:none"
         d="m 2039.9,1810.54 c -0.51,0 -0.99,0 -1.5,0 -0.17,0 -0.34,0 -0.51,0 -0.33,0 -0.64,0 -0.96,0 -0.26,0 -0.51,0 -0.77,0 -0.23,0 -0.45,0 -0.68,0 -0.29,0 -0.6,0 -0.9,0 -0.16,0 -0.35,0 -0.51,0 -0.38,0 -0.75,0 -1.13,0 -0.06,0 -0.15,0 -0.22,0 -0.43,0 -0.87,0 -1.3,0 -0.01,0 -0.01,0 -0.03,0 -117.82,0.14 -232.65,3.26 -343.34,9 v 0 h -0.02 c 0.07,0.59 26.29,248.06 190.93,504.89 37.28,-44.01 92.93,-71.98 155.12,-71.98 112.26,0 203.26,91.01 203.26,203.26 0,68.89 -34.31,129.74 -86.76,166.5 106.87,82.36 237.97,153.39 398.87,201.58 65.93,-52.87 123.44,-115.78 170.26,-186.4 17.52,-26.41 33.6,-53.84 48,-82.28 1.19,-2.34 2.35,-4.68 3.51,-7.03 0.07,-0.13 0.14,-0.26 0.2,-0.4 53.6,-108.63 83.76,-230.88 83.76,-360.22 0,-13.15 -0.31,-26.23 -0.93,-39.23 -4.97,-104.91 -29.77,-204.63 -70.75,-295.49 -223.2,-26.99 -475.91,-42.2 -743.6,-42.2" /><path
         id="path38"
         style="fill:#ffffff;fill-opacity:1;fill-rule:nonzero;stroke:none"
         d="m 948.453,1881.66 c 0,-34.31 -62.765,-62.12 -140.176,-62.12 -77.422,0 -140.187,27.81 -140.187,62.12 0,34.31 62.765,62.12 140.187,62.12 77.411,0 140.176,-27.81 140.176,-62.12" /><path
         id="path40"
         style="fill:#ffffff;fill-opacity:1;fill-rule:nonzero;stroke:none"
         d="m 3332.86,1881.66 c 0,-34.31 -62.76,-62.12 -140.18,-62.12 -77.41,0 -140.18,27.81 -140.18,62.12 0,34.31 62.77,62.12 140.18,62.12 77.42,0 140.18,-27.81 140.18,-62.12" /><path
         id="path42"
         style="fill:#ffffff;fill-opacity:1;fill-rule:nonzero;stroke:none"
         d="m 1420.38,1680.75 c 0,-34.32 -62.77,-62.13 -140.18,-62.13 -77.42,0 -140.18,27.81 -140.18,62.13 0,34.3 62.76,62.12 140.18,62.12 77.41,0 140.18,-27.82 140.18,-62.12" /><path
         id="path44"
         style="fill:#ffffff;fill-opacity:1;fill-rule:nonzero;stroke:none"
         d="m 2907.12,1680.75 c 0,-34.32 -62.76,-62.13 -140.17,-62.13 -77.42,0 -140.18,27.81 -140.18,62.13 0,34.3 62.76,62.12 140.18,62.12 77.41,0 140.17,-27.82 140.17,-62.12" /><path
         id="path46"
         style="fill:#ffffff;fill-opacity:1;fill-rule:nonzero;stroke:none"
         d="m 2180.07,1618.62 c 0,-34.31 -62.76,-62.11 -140.17,-62.11 -77.41,0 -140.18,27.8 -140.18,62.11 0,34.31 62.77,62.13 140.18,62.13 77.41,0 140.17,-27.82 140.17,-62.13" /></g></g></svg>